<?xml version="1.0" standalone="no"?><!DOCTYPE svg PUBLIC "-//W3C//DTD SVG 1.1//EN" "http://www.w3.org/Graphics/SVG/1.1/DTD/svg11.dtd"><svg t="1517235574664" class="icon" style="" viewBox="0 0 1024 1024" version="1.1" xmlns="http://www.w3.org/2000/svg" p-id="1664" xmlns:xlink="http://www.w3.org/1999/xlink" width="200" height="200"><defs><style type="text/css"></style></defs><path d="M898.63543088 898.63543088V125.36456912H125.36456912v773.27086176h773.27086176m0-883.73812718a110.46726541 110.46726541 0 0 1 110.46726542 110.46726542v773.27086176a110.46726541 110.46726541 0 0 1-110.46726542 110.46726542H125.36456912a110.46726541 110.46726541 0 0 1-110.46726542-110.46726542V125.36456912a110.46726541 110.46726541 0 0 1 110.46726542-110.46726542h773.27086176m-127.03735658 350.73356863l-55.23363205 55.23363336-113.22894794-113.22894794 55.23363336-55.23363205c11.59906291-12.15139967 30.93083402-12.15139967 42.52989692 0l70.69904971 70.69904971c12.15139967 11.59906291 12.15139967 30.93083402 0 42.52989692M235.83183582 674.3868808l334.7158155-334.71581552 113.7812834 113.7812834L349.6131192 788.16816418H235.83183582v-113.78128338z" fill="#666666" p-id="1665"></path></svg>