<?xml version="1.0" standalone="no"?><!DOCTYPE svg PUBLIC "-//W3C//DTD SVG 1.1//EN" "http://www.w3.org/Graphics/SVG/1.1/DTD/svg11.dtd"><svg t="1517384594097" class="icon" style="" viewBox="0 0 1024 1024" version="1.1" xmlns="http://www.w3.org/2000/svg" p-id="4605" xmlns:xlink="http://www.w3.org/1999/xlink" width="200" height="200"><defs><style type="text/css"></style></defs><path d="M512 512m-512 0a512 512 0 1 0 1024 0 512 512 0 1 0-1024 0Z" fill="#BDC3C7" p-id="4606"></path><path d="M514.275556 483.783111V785.066667l244.849777-122.424889V361.358222" fill="#93CFEF" p-id="4607"></path><path d="M509.724444 483.783111V785.066667L264.988444 662.641778V361.358222" fill="#D87070" p-id="4608"></path><path d="M509.724444 796.444444a11.377778 11.377778 0 0 1-5.12-1.251555L259.868444 672.881778a11.377778 11.377778 0 0 1-6.257777-10.126222V361.358222a11.377778 11.377778 0 1 1 22.755555 0v294.229334l221.980445 111.047111V483.783111a11.377778 11.377778 0 0 1 22.755555 0V785.066667a11.377778 11.377778 0 0 1-11.377778 11.377777z" fill="#464C63" p-id="4609"></path><path d="M509.724444 483.783111V785.066667L264.988444 662.641778V361.358222" fill="#D87070" p-id="4610"></path><path d="M509.724444 796.444444a11.377778 11.377778 0 0 1-5.12-1.251555L259.868444 672.881778a11.377778 11.377778 0 0 1-6.257777-10.126222V361.358222a11.377778 11.377778 0 1 1 22.755555 0v294.229334l221.980445 111.047111V483.783111a11.377778 11.377778 0 0 1 22.755555 0V785.066667a11.377778 11.377778 0 0 1-11.377778 11.377777z" fill="#464C63" p-id="4611"></path><path d="M509.724444 483.783111L264.988444 361.358222 500.394667 238.933333l254.179555 122.424889L509.724444 483.783111" fill="#FABD6B" p-id="4612"></path><path d="M509.724444 495.160889a11.377778 11.377778 0 0 1-5.12-1.251556L259.868444 371.484444a11.377778 11.377778 0 0 1 0-20.252444l235.178667-122.424889a11.377778 11.377778 0 0 1 10.24 0l254.179556 122.311111a11.377778 11.377778 0 0 1 0 20.48l-244.622223 122.311111a11.377778 11.377778 0 0 1-5.12 1.251556zM290.019556 361.130667L509.724444 471.04l219.022223-109.454222L500.622222 251.676444z" fill="#464C63" p-id="4613"></path><path d="M509.724444 796.444444a11.377778 11.377778 0 0 1-5.12-21.504l238.933334-119.239111V361.358222a11.377778 11.377778 0 1 1 22.755555 0v301.283556a11.377778 11.377778 0 0 1-6.257777 10.126222L514.844444 795.192889a11.377778 11.377778 0 0 1-5.12 1.251555z" fill="#464C63" p-id="4614"></path></svg>