<?xml version="1.0" standalone="no"?><!DOCTYPE svg PUBLIC "-//W3C//DTD SVG 1.1//EN" "http://www.w3.org/Graphics/SVG/1.1/DTD/svg11.dtd"><svg t="1516975227197" class="icon" style="" viewBox="0 0 1024 1024" version="1.1" xmlns="http://www.w3.org/2000/svg" p-id="971" xmlns:xlink="http://www.w3.org/1999/xlink" width="200" height="200"><defs><style type="text/css"></style></defs><path d="M512 512m-448 0a448 448 0 1 0 896 0 448 448 0 1 0-896 0Z" fill="#FFD878" p-id="972"></path><path d="M544 384v192l-96-64-64 96-64-96-96 64v-192c0-128 160-128 160-128s160 0 160 128z" fill="#C9A287" p-id="973"></path><path d="M896.32 608s-32 96-128 128c-13.76 4.48-27.488 6.4-40.928 6.4-76.8 0-144.672-64-151.072-70.4 0 0 64-128 160-128s160 64 160 64z" fill="#75EA9C" p-id="974"></path><path d="M384.032 288C389.728 288 512 289.28 512 384v132.224l-46.24-30.848-26.624-17.76-17.76 26.624L384 550.304l-37.376-56.064-17.76-26.624-26.624 17.76L256 516.224V384c0-93.888 122.048-95.968 128.032-96M384 256s-160 0-160 128v192l96-64 64 96 64-96 96 64v-192c0-128-160-128-160-128zM736.32 576c55.072 0 98.592 25.088 120.928 41.28-13.472 25.696-43.712 69.92-99.072 88.384a97.44 97.44 0 0 1-30.752 4.864c-42.016 0-84.64-25.536-110.048-45.216C638.048 633.28 682.592 576 736.32 576m0-32c-96 0-160 128-160 128 6.272 6.24 74.208 70.528 151.2 70.528 13.44 0 27.168-1.984 40.8-6.528 96-32 128-128 128-128s-64-64-160-64z" fill="#4D5152" p-id="975"></path><path d="M224.32 736s32 96 128 128c13.76 4.48 27.488 6.4 40.928 6.4 76.8 0 144.672-64 151.072-70.4 0 0-64-128-160-128s-160 64-160 64z" fill="#75EA9C" p-id="976"></path><path d="M384.32 704c53.728 0 98.24 57.28 118.944 89.312-25.44 19.68-68.064 45.216-110.048 45.216-10.688 0-20.992-1.664-30.752-4.864-55.328-18.464-85.6-62.688-99.072-88.384 22.336-16.192 65.856-41.28 120.928-41.28m0-32c-96 0-160 64-160 64s32 96 128 128c13.664 4.576 27.36 6.528 40.8 6.528 76.96 0 144.896-64.288 151.2-70.528 0 0-64-128-160-128z" fill="#4D5152" p-id="977"></path></svg>