<?xml version="1.0" standalone="no"?><!DOCTYPE svg PUBLIC "-//W3C//DTD SVG 1.1//EN" "http://www.w3.org/Graphics/SVG/1.1/DTD/svg11.dtd"><svg t="1517810323858" class="icon" style="" viewBox="0 0 1024 1024" version="1.1" xmlns="http://www.w3.org/2000/svg" p-id="1684" xmlns:xlink="http://www.w3.org/1999/xlink" width="200" height="200"><defs><style type="text/css"></style></defs><path d="M48.34679137 68.89370282h886.19491874v886.19491874H48.34679137V68.89370282z" fill="#606060" p-id="1685"></path><path d="M863.64823758 139.8225253h-48.11954099l-0.03534868-0.03534995H167.38631703v0.03534995h-48.13721532v48.11070319l-0.01767433 0.03534995v648.08935526h0.01767433v48.15489095l744.39913587-744.39029935z" fill="#F8FCFF" p-id="1686"></path><path d="M119.24910171 884.21282465h744.39913587V139.8225253l-744.39913587 744.39029935z" fill="#D8D8D8" p-id="1687"></path><path d="M736.73460519 266.7449955l-77.45080855 77.48615852h134.44308122v-77.48615852h-56.99227267z" fill="#469FCC" p-id="1688"></path><path d="M265.33985188 738.1309123l-18.41710343 18.42593995h18.41710343v-18.42593995z" fill="#36A8C6" p-id="1689"></path><path d="M380.33185606 679.80419595h-1.19304647v77.45080855h414.58806827v-77.45080855H380.33185606z" fill="#469FCC" p-id="1690"></path><path d="M378.98857455 266.7449955v77.48615852h280.29522209l77.45080855-77.48615852H378.98857455zM265.33985188 678.805571h-77.77779341v77.75128125h59.36068998l18.41710343-18.42593995v-59.3253413zM187.57089629 475.38672942h77.7777921v77.78662991h-77.7777921v-77.78662991z m0-203.40116727h77.7777921v77.77779211h-77.7777921v-77.77779211zM378.98857455 475.42207936v77.48615852h71.58278827l77.48615851-77.48615852H378.98857455z" fill="#79D6F2" p-id="1691"></path><path d="M528.04868482 475.42207936l-77.48615983 77.48615852h344.78159364v-77.48615852H528.04868482z" fill="#469FCC" p-id="1692"></path><path d="M616.81134227 330.91322002l14.2281834 32.2034182 9.78298106-5.29359225-7.85643237-14.58167909a24.63861941 24.63861941 0 0 0-16.15473209-12.32814686z" fill="#E84656" p-id="1693"></path><path d="M588.53172134 367.1553206l7.87410671 14.57284257 34.64253544-18.65571273-14.22818471-32.19457909a24.96560165 24.96560165 0 0 0-18.01941997 2.05910942c-2.73075081 1.50235439-5.16103024 3.51727731-7.1406045 5.92988239l-0.86606293 1.00746147a25.32793515 25.32793515 0 0 0-2.26237004 27.28099597z m2.26237004-27.23680821l0.86606293-1.00746147-0.86606293 1.00746147z" fill="#E84656" p-id="1694"></path><path d="M640.84901888 357.82304597l-9.77414325 5.29359225 15.78356208 35.72953203a25.00978942 25.00978942 0 0 0 1.84701354-26.45028171l-7.85643237-14.57284257z m-36.59559626 38.52214495a25.21304876 25.21304876 0 0 0 34.16531685 10.24252533h0.00883651c3.37588007-1.88236221 6.24802813-4.53357659 8.40434959-7.741546l-15.7923999-35.72953203-34.64253414 18.64687361 7.85643109 14.58167909z" fill="#D62740" p-id="1695"></path><path d="M644.003964 412.9771429l7.34386383-3.97682157-3.64983804-8.28062667-3.69402579 12.25744824z m38.02725201-54.10244769l-25.9730644 14.00724845-8.33364967 27.837751 3.65867584 8.28062667 42.97618511-23.14510154c-5.51452591-16.84404912-12.32814687-26.98052458-12.32814688-26.98052458z m12.32814688 26.98936238l-42.97618511 23.14510155 35.14626487 79.49224363a133.53283053 133.53283053 0 0 0 7.82992024-102.63734518zM651.34782783 409.00915914l-7.34386383 3.97682157-50.15213827 167.17674101c49.96655326-30.25919389 77.86616635-61.95004226 92.66877911-91.67015546l-35.17277701-79.48340712z" fill="#7AC3E1" p-id="1696"></path><path d="M694.34168726 385.86405759l12.27512259-6.6015238-24.57675731-20.38783858c-0.00883781 0 6.80478314 10.13647675 12.30163472 26.98936238z" fill="#3BAFDA" p-id="1697"></path><path d="M811.0039578 466.23120198l0.14139853-0.40651866-104.52854648-86.58866168-12.27512259 6.61036033c11.22347465 33.89135759 8.39551178 70.86696038-7.85643108 102.6550208l16.00449705 36.14488983 108.51420457-58.41509062zM593.85182573 580.16272172l-0.99862495 3.33169231 0.01767563 0.185585 109.61887682-59.03370643-16.00449705-36.14488983c-14.77610191 29.71127538-42.68455152 61.40212505-92.63343045 91.66131895z" fill="#3BAFDA" p-id="1698"></path><path d="M647.68915198 400.72853246l8.32481316-27.83775099-16.69381279 8.98761675 8.36899963 18.85013424z m-73.04095617 15.96914838l3.47309084 31.76154828 65.88267735-35.48208622 3.69402579-12.25744824-8.36016311-18.85897078-64.68963087 34.83695696z" fill="#7AC3E1" p-id="1699"></path><path d="M592.55273068 580.9404117l1.29025723-0.77768998 50.15213827-167.17674101-65.9091895 35.48208492 14.466794 132.47234607z" fill="#7AC3E1" p-id="1700"></path><path d="M811.0039578 466.23120198l0.38884434-0.20325933-0.24744581-0.20325933-0.14139853 0.40651866z" fill="#282D32" p-id="1701"></path><path d="M811.39280214 466.04561698l-0.38884434 0.185585-108.51420457 58.41509062 6.19500383 14.03376187-6.19500383-14.03376187L592.86203859 583.67116251l125.72942374 190.56045184 108.05466032 163.71248799c104.44017225-186.59246809-15.2533205-471.89848535-15.25332051-471.89848536z" fill="#FF4D56" p-id="1702"></path><path d="M978.47233239 856.22483732L811.39280214 466.04561698s119.69349147 285.30601727 15.22680837 471.94267183l151.85272188-81.76345149z" fill="#E84656" p-id="1703"></path><path d="M658.21447307 365.66180402c-7.26432739 2.52749147-14.52865481 6.16849169-21.79298221 9.52669615l2.94284797 6.68106025 16.69381278-8.98761676 25.9730644-14.00724845c-8.07736605 1.74096368-16.03100918 4.00333371-23.81674294 6.78710881z m-83.56627726 51.03587682l64.71614302-34.82812042-2.94284797-6.68106025c-4.02984586 1.84701225-8.07736605 3.12843297-12.01883895 5.25824228-19.15944215 10.31322395-36.61327058 23.10975158-49.7544561 36.25093839z" fill="#7AC3E1" p-id="1704"></path><path d="M978.47233239 856.22483732l-151.86155971 81.76345149c30.10895755 12.35465901 64.5835823 12.0453511 95.46139333-4.5954374 30.91315968-16.63195198 50.14330175-45.22087951 56.40016638-77.16801409z" fill="#3BAFDA" p-id="1705"></path></svg>