<?xml version="1.0" standalone="no"?><!DOCTYPE svg PUBLIC "-//W3C//DTD SVG 1.1//EN" "http://www.w3.org/Graphics/SVG/1.1/DTD/svg11.dtd"><svg t="1517902000711" class="icon" style="" viewBox="0 0 1024 1024" version="1.1" xmlns="http://www.w3.org/2000/svg" p-id="3946" xmlns:xlink="http://www.w3.org/1999/xlink" width="200" height="200"><defs><style type="text/css"></style></defs><path d="M517.432733 68.144006l-11.837606 0c-244.11788 0-442.013019 197.896162-442.013019 442.010973 0 244.115833 197.895139 442.010973 442.013019 442.010973l11.837606 0c244.115833 0 442.010973-197.895139 442.010973-442.010973C959.443705 266.040169 761.548566 68.144006 517.432733 68.144006zM516.588505 889.016703l-10.149151 0c-209.240535 0-378.867864-169.622212-378.867864-378.862747 0-209.242582 169.627329-378.867864 378.867864-378.867864l10.149151 0c209.240535 0 378.864794 169.625282 378.864794 378.867864C895.453299 719.394491 725.830063 889.016703 516.588505 889.016703z" p-id="3947" fill="#117cd8"></path><path d="M515.317559 226.003314l-7.608282 0c-156.932192 0-284.152688 127.21845-284.152688 284.150642 0 156.930145 127.220497 284.148595 284.152688 284.148595l7.608282 0c156.932192 0 284.150642-127.21845 284.150642-284.148595C799.468201 353.221764 672.249751 226.003314 515.317559 226.003314z" p-id="3948" fill="#117cd8"></path></svg>