<?xml version="1.0" standalone="no"?><!DOCTYPE svg PUBLIC "-//W3C//DTD SVG 1.1//EN" "http://www.w3.org/Graphics/SVG/1.1/DTD/svg11.dtd"><svg t="1517809840411" class="icon" style="" viewBox="0 0 1024 1024" version="1.1" xmlns="http://www.w3.org/2000/svg" p-id="859" xmlns:xlink="http://www.w3.org/1999/xlink" width="200" height="200"><defs><style type="text/css"></style></defs><path d="M736 240h128v320h-128zM448 240h128v320h-128zM160 240h128v320h-128z" fill="#FFFFFF" p-id="860"></path><path d="M736 128h128v48h-128zM448 128h128v48h-128zM160 128h128v48h-128zM288 624v272h-128V624z m-32 96v-48h-64v48zM576 624v272h-128V624z m-32 96v-48h-64v48zM864 624v272h-128V624z m-32 96v-48h-64v48z" fill="#A8CEFB" p-id="861"></path><path d="M928 64v896H672V64z m-64 832V624h-128v272z m0-336V240h-128v320z m0-384V128h-128v48z" fill="#305CBC" p-id="862"></path><path d="M768 672h64v48h-64zM640 64v896H384V64z m-64 832V624h-128v272z m0-336V240h-128v320z m0-384V128h-128v48z" fill="#305CBC" p-id="863"></path><path d="M480 672h64v48h-64zM352 64v896H96V64z m-64 832V624h-128v272z m0-336V240h-128v320z m0-384V128h-128v48z" fill="#305CBC" p-id="864"></path><path d="M192 672h64v48h-64z" fill="#305CBC" p-id="865"></path></svg>