<?xml version="1.0" standalone="no"?><!DOCTYPE svg PUBLIC "-//W3C//DTD SVG 1.1//EN" "http://www.w3.org/Graphics/SVG/1.1/DTD/svg11.dtd"><svg t="1516861219457" class="icon" style="" viewBox="0 0 1024 1024" version="1.1" xmlns="http://www.w3.org/2000/svg" p-id="1047" xmlns:xlink="http://www.w3.org/1999/xlink" width="200" height="200"><defs><style type="text/css"></style></defs><path d="M886.7 643.4c14.1 7.5 27.3 16.2 38.4 27.8 20.3 21.2 32.5 46.4 36.6 75.4 0.1 1-0.5 2.3 1 2.8V779c-1.1 9.3-2.4 18.5-5.7 27.4-19.9 52.8-57.4 83.6-113.6 90.5-33.1 4-63.4-4.7-90.8-23.5-3.1-2.2-6.2-4.4-9-7.1-9.6-7.8-17.6-17.2-24.8-27.2-16.7-24.5-24.4-51.8-23-81.3 1.3-29.6 11.4-56.3 30.5-79.3 22.1-26.4 50.1-42.2 84.2-47.5 8.4-1.3 16.8-1.7 25.2-1.5 16 1.2 31.6 4.1 46.4 10.7 1.7 0.9 3.7 1.4 4.6 3.2zM723.6 878.7c5.3 13.4 2.5 21.4-10.1 28.6-50.2 28.5-104 45.6-161.5 50.9-3.9 0.4-8.1-0.3-11.9 1.7h-3.8c-1-0.7-1.9-0.7-2.9 0h-4.8c-1.5-1-3.2-0.3-4.8-0.5-1.6 0.2-3.3-0.5-4.8 0.5h-10.5c-2.4-1.1-5-0.2-7.5-0.5-2 0.3-4-0.5-5.9 0.5h-12.4c-3.6-2-7.6-1.4-11.4-1.7-57.4-4.6-110.8-21.3-159.5-52.6-11.7-7.6-14.2-16.4-8-28.8 0.1-2.6 1.9-3.9 3.7-5.2 7.1-5.1 16.3-5.1 24.2-0.1 17.1 10.8 35 20.3 54 27.6 25.1 9.7 51.1 15.7 77.9 18.6 21.9 2.4 43.8 3.6 65.8 2.6 33.1-1.4 65.5-6.9 97-17.4 22.8-6.8 44.1-17 64.9-28.3 5.7-3.1 11.3-6.7 18.3-5.5 6.3 0.8 11.9 2.8 14 9.6z" fill="#030000" p-id="1048"></path><path d="M500.9 959c2.6 0.2 5.3-1 7.7 0.9H501c-0.3-0.2-0.4-0.4-0.3-0.6 0-0.2 0.1-0.3 0.2-0.3z" fill="#1C1919" p-id="1049"></path><path d="M500.9 959c0 0.3 0.1 0.6 0.1 0.9h-5.7c1.5-2 3.7-0.6 5.6-0.9z" fill="#3E3C3C" p-id="1050"></path><path d="M519.1 959.8c1.4-1.6 3.2-0.7 4.8-0.9 0.3 0.2 0.4 0.4 0.3 0.6-0.1 0.2-0.2 0.3-0.3 0.3h-4.8z" fill="#141111" p-id="1051"></path><path d="M523.9 959.8c0-0.3 0-0.6 0.1-0.9 1.6 0.2 3.4-0.8 4.7 0.9h-4.8z" fill="#2D2B2B" p-id="1052"></path><path d="M533.5 959.8c1-1.4 1.9-1.6 2.9 0h-2.9z" fill="#817F7F" p-id="1053"></path><path d="M627.1 903.6c-20.9 7.7-42.5 12.1-64.4 14.9-39.7 5.1-79.4 3.9-119-2.4-40.1-6.5-77.1-21.1-111.3-42.9-11-7-19.7-5.9-28.5 3.5-6.5-4.7-13.4-8.8-19.3-14.3-0.2-2.4 1.7-3.7 3.1-5.1 20.6-20.7 33.4-45.3 37.4-74.2 5.3-38.4-4-73-28.8-103.1-21.5-26.1-49.2-41.3-82.6-46.4-21.9-3.3-43.2-0.8-63.9 6.6-2 0.7-4 2.3-6.3 0.9-1.3-7.2-2.7-14.5-4-21.7 1-2.2 3.2-2.5 5-3.3 6.6-3.1 9.7-8.4 10-15.6 0.3-5.9-0.6-11.8-1.1-17.6-1.6-20.4-0.5-40.7 1-61 2.4-32.3 8.8-63.7 19.3-94.3 13.1-38.1 32.7-72.6 59.5-102.7 26.8-30.2 58.5-54.3 94.6-72.5 4.4-2.2 8.9-4.3 13.2-6.7 10-5.6 13-14.1 8.8-24.6-0.5-1.2-1.1-2.3-0.6-3.7 11-4.6 21.8-9.9 33.1-13.8 2.2 2.7 1.9 6 2.2 9.1 5.7 60.7 53.6 110.5 113.9 117.5 44.8 5.2 83-8.8 113.9-41.5 14.7-15.5 24.7-33.9 30.2-54.7 0.6-2.4 0.7-5.1 2.9-6.9 2.3-0.8 4 0.4 5.8 1.5 22.6 13 43.6 28.1 63.2 45.3 33.8 29.8 61.5 64.4 83.1 104 20.8 38.1 34.5 78.7 41.4 121.5 4.1 25.1 5.7 50.3 4.7 75.6-0.7 17.1-2.3 34.3-5.6 51.2-0.3 1.8-0.7 3.4-2.2 4.6-23.4-0.4-45.8 4.1-66.7 14.9-48.3 25-76.4 76.7-71.3 130.9 2.2 22.8 10.2 43.4 22.5 62.5 0.4 2.1-1.2 3.1-2.5 4.3-22.5 20.1-46.9 37.4-73.3 52.1-5.7 3.2-11.7 5.3-17.4 8.1z" fill="#FEDD5C" p-id="1054"></path><path d="M645.4 227.5c-6.2 27.1-18.8 50.7-39.5 69.3-38.1 34.2-82.4 44.9-131.2 29.2-48.3-15.5-77.9-49.7-89.5-99.2-1.8-7.6-2.3-15.4-2.9-23.2-0.2-22.8 4.4-44.5 14.9-64.8 25.9-50 81.2-78.8 136.2-70.8 57.2 8.3 102 51.1 112.6 107.6 1.7 9.2 2.2 18.6 2.3 28 2.4 5.1 0 10.2-0.2 15.3-0.2 3.1-0.3 6.2-2.7 8.6zM143.5 641.2c17.9-7.1 36.5-10.7 55.9-10.2 62.3 1.4 117.6 49.8 126.7 111.1 6.8 46-6.6 85.4-39.6 118.1-0.7 0.7-1.2 1.4-1.9 2.1-13.7 11.5-28.7 21-45.7 26.9-78 27.3-162.1-22.8-175-104.4C54.5 725.6 85.3 668 139.7 643c1.2-0.5 2.5-1.2 3.8-1.8zM349.2 217.5c7.5 12.2 4.1 23.8-8.8 30-45.5 21.6-85 51-116.5 90.7-32.7 41.2-52.4 88.3-62.3 139.7-7 36.6-9.3 73.5-6.7 110.7 0.1 1.7 0.3 3.5 0.5 5.2 1.7 14.3-2.5 21-16 25.7-14.6-0.4-20.7-6.7-22-22.4-4.6-53-0.8-105.3 13.6-156.6 29.7-105.6 95-181.3 194-228.1 9.1-4.3 16.4-2.6 24.2 5.1zM679.6 217c8.3-11.3 17-13.4 29.2-6.4 100 57.3 165.1 141.5 194.2 253 11.3 43.5 14.4 87.8 10.1 132.6-1.2 12.5-8.1 18.5-21.3 18.9-4.5 1.6-7.8-1.2-10.8-3.5-5.5-4.3-7.9-10.5-7.4-17.3 1.4-18.6 2-37.1 0.9-55.7-1.4-23-4.8-45.6-10.5-67.8-13.6-53.3-38.1-100.8-73.5-142.8-29-34.4-63.3-62.1-102.5-83.9-8.3-4.6-12-11.5-11.2-20.9 0.1-2.4 0.4-4.8 2.8-6.2z" fill="#030000" p-id="1055"></path><path d="M679.6 217c-4.2 12.6-1.1 20.3 10.6 27 94.2 54.2 154.1 134.1 178.3 240.1 8.2 35.9 10.1 72.5 6.5 109.2-1 11 5.2 19.2 16.8 21.8-1.7 9.5-3.5 18.9-5.2 28.4-12.1-5-24.4-9.3-37.5-11-4.5-0.6-9.1-1-13.6-1.5 2.2-11.2 3.8-22.5 4.8-33.9 1.4-14.7 2.1-29.5 1.8-44.3-1-43.5-9-85.7-24.3-126.5-13.2-35.3-31.3-67.8-54.3-97.6-22.7-29.5-49.2-55.3-79.4-77.1-10.8-7.8-22.1-15-33.6-21.8-1.6-0.9-3.5-1.6-5.2-2.3 1.4-7.9 2.3-15.8 2.9-23.8 10.8 3.9 21.2 8.4 31.4 13.3z" fill="#EC8B1C" p-id="1056"></path><path d="M924.5 764c-0.1 52.2-42.7 94.6-95 94.5-52-0.1-94.3-42.7-94.3-94.8 0.1-52.2 42.7-94.6 95-94.5 52 0.1 94.3 42.7 94.3 94.8z" fill="#1C8EF0" p-id="1057"></path><path d="M627.1 903.6c6.3-4.6 13.6-7.3 20.3-11.2 23.7-13.6 46.1-29.1 66.4-47.4 2.1-1.9 4.7-3.2 6.2-5.8 7 9.3 14.6 18 23.2 25.7-6.6 4.6-13.1 9.2-19.7 13.7-9-10.2-17-11.5-29-4.6-20.5 11.7-41.8 21.4-64.2 28.8-1 0.4-2.1 0.6-3.2 0.8z" fill="#EC8B1C" p-id="1058"></path><path d="M200.8 546.2c1.1-51.6 10.1-101.5 33.3-148.1 4.4-8.8 9.3-17.4 14.9-25.6 3.1-4.5 7.1-5.7 11-3.4 4 2.4 4.8 7.1 1.8 11.6-25.1 38.2-37.5 80.7-43 125.7-2.1 17.1-3 34.2-2.6 51.4 0.1 6.3-2.4 9.8-7 10-4.7 0.2-8.1-3.7-8.2-9.7v-1.4c-0.2-3.4-0.2-7-0.2-10.5zM359 289.6c4.3 0.3 7.1 2.3 7.9 6.1 0.8 3.9-0.8 7-4.5 8.5-5 2.1-10.1 3.7-15.1 5.8-13.6 5.6-26.3 12.8-38.3 21.3-4.9 3.5-9.5 3.1-12.2-0.7-2.7-3.8-1.6-8 3.1-11.4 17.2-12.6 36.1-22 56.2-28.8 1.1-0.4 2.2-0.6 2.9-0.8z" fill="#FEFEFE" p-id="1059"></path><path d="M609.9 199.7c0 52.3-42.5 94.8-94.8 94.7-52 0-94.5-42.5-94.5-94.6 0-52.3 42.5-94.8 94.8-94.7 52.1 0.1 94.5 42.6 94.5 94.6z" fill="#EC8B1C" p-id="1060"></path><path d="M100.4 763.9c0-52.3 42.5-94.8 94.8-94.7 52 0 94.5 42.5 94.5 94.6 0 52.3-42.5 94.8-94.8 94.7-52.1 0-94.5-42.5-94.5-94.6z" fill="#69CAFE" p-id="1061"></path></svg>