<?xml version="1.0" standalone="no"?><!DOCTYPE svg PUBLIC "-//W3C//DTD SVG 1.1//EN" "http://www.w3.org/Graphics/SVG/1.1/DTD/svg11.dtd"><svg t="1518092658502" class="icon" style="" viewBox="0 0 1024 1024" version="1.1" xmlns="http://www.w3.org/2000/svg" p-id="1291" xmlns:xlink="http://www.w3.org/1999/xlink" width="32" height="32"><defs><style type="text/css"></style></defs><path d="M506 516m-492 0a492 492 0 1 0 984 0 492 492 0 1 0-984 0Z" fill="#CCD1D9" p-id="1292"></path><path d="M389.328 390.688l-202.656-204-21.344-21.344-54.656 69.344-69.344 150.656L448 496.032l16.218 13.468c6.562-18.688 24.172-32.156 45.11-32.156 26.516 0 47.984 21.5 47.984 48 0 17.782-9.75 33.126-24.156 41.438l332.156 275.906 117.376-202.656L660 562.688l-270.672-172z" fill="#F5F7FA" p-id="1293"></path><path d="M512 373.344c-81.734 0-148 66.25-148 148s66.266 148 148 148c81.75 0 148-66.25 148-148s-66.25-148-148-148z m-1.516 178.688c-23.734 0-43-19.25-43-43s19.266-43 43-43c23.75 0 43.016 19.25 43.016 43s-19.266 43-43.016 43z" fill="#AC92EB" p-id="1294"></path><path d="M512 0C229.234 0 0 229.218 0 512c0 282.75 229.234 512 512 512 282.75 0 512-229.25 512-512C1024 229.218 794.75 0 512 0zM79.532 329.312a467.394 467.394 0 0 1 85.858-133.75l211.796 211.782a169.624 169.624 0 0 0-22.578 38.532L66.046 365.312c4-12.124 8.47-24.124 13.486-36zM512 640c-70.578 0-128-57.438-128-128s57.422-128 128-128c70.562 0 128 57.438 128 128s-57.438 128-128 128z m182.688 304.468c-57.844 24.468-119.312 36.844-182.688 36.844s-124.844-12.376-182.672-36.844c-55.89-23.656-106.078-57.468-149.204-100.594-43.11-43.126-76.954-93.312-100.594-149.188-24.468-57.876-36.86-119.312-36.86-182.688 0-35.938 3.984-71.218 11.89-105.594L343.156 487a173.324 173.324 0 0 0-1.828 25c0 94.25 76.422 170.656 170.672 170.656 39.438 0 75.75-13.376 104.656-35.844l211.782 211.812a467.65 467.65 0 0 1-133.75 85.844z m249.78-249.78a467.692 467.692 0 0 1-85.844 133.75L646.812 616.626a168.338 168.338 0 0 0 22.562-38.532l288.562 80.594c-3.998 12.124-8.436 24.124-13.468 36zM680.844 537c1.188-8.188 1.844-16.5 1.844-25 0-94.25-76.438-170.688-170.688-170.688-39.438 0-75.75 13.406-104.656 35.876L195.562 165.376c39.516-36.126 84.422-64.968 133.766-85.844C387.156 55.062 448.626 42.656 512 42.656s124.844 12.406 182.688 36.876c55.876 23.656 106.062 57.468 149.188 100.594s76.938 93.312 100.594 149.188c24.468 57.844 36.844 119.312 36.844 182.688 0 35.906-3.968 71.188-11.876 105.562L680.844 537z" fill="" p-id="1295"></path><path d="M512 448c-35.344 0-64 28.656-64 64s28.656 64 64 64 64-28.656 64-64-28.656-64-64-64z m0 85.312c-11.766 0-21.328-9.562-21.328-21.312s9.562-21.344 21.328-21.344 21.328 9.594 21.328 21.344-9.562 21.312-21.328 21.312z" fill="" p-id="1296"></path></svg>