<?xml version="1.0" standalone="no"?><!DOCTYPE svg PUBLIC "-//W3C//DTD SVG 1.1//EN" "http://www.w3.org/Graphics/SVG/1.1/DTD/svg11.dtd"><svg t="1518146134120" class="icon" style="" viewBox="0 0 1024 1024" version="1.1" xmlns="http://www.w3.org/2000/svg" p-id="2685" xmlns:xlink="http://www.w3.org/1999/xlink" width="200" height="200"><defs><style type="text/css"></style></defs><path d="M941.967463 109.714286v804.571428q0 14.857143-10.857143 25.714286t-25.714286 10.857143H612.824606q-14.857143 0-25.714286-10.857143t-10.857143-25.714286V109.714286q0-14.857143 10.857143-25.714286t25.714286-10.857143h292.571428q14.857143 0 25.714286 10.857143t10.857143 25.714286z m-512 0v804.571428q0 14.857143-10.857143 25.714286t-25.714286 10.857143H100.824606q-14.857143 0-25.714286-10.857143t-10.857143-25.714286V109.714286q0-14.857143 10.857143-25.714286t25.714286-10.857143h292.571428q14.857143 0 25.714286 10.857143t10.857143 25.714286z" p-id="2686" fill="#5a5a5a"></path></svg>