<?xml version="1.0" standalone="no"?><!DOCTYPE svg PUBLIC "-//W3C//DTD SVG 1.1//EN" "http://www.w3.org/Graphics/SVG/1.1/DTD/svg11.dtd"><svg t="1518146125864" class="icon" style="" viewBox="0 0 1024 1024" version="1.1" xmlns="http://www.w3.org/2000/svg" p-id="2395" xmlns:xlink="http://www.w3.org/1999/xlink" width="200" height="200"><defs><style type="text/css"></style></defs><path d="M960 619.136l0 84.864-84.864 0-107.136-107.136-107.136 107.136-84.864 0 0-84.864 107.136-107.136-107.136-107.136 0-84.864 84.864 0 107.136 107.136 107.136-107.136 84.864 0 0 84.864-107.136 107.136 107.136 107.136z" p-id="2396" fill="#5a5a5a"></path><path d="M416 960c-8.32 0-16.512-3.264-22.624-9.376l-246.624-246.624-114.752 0c-17.664 0-32-14.336-32-32l0-320c0-17.664 14.336-32 32-32l114.752 0 246.624-246.624c9.152-9.152 22.912-11.904 34.88-6.944s19.744 16.608 19.744 29.568l0 832c0 12.928-7.808 24.608-19.744 29.568-3.968 1.632-8.128 2.432-12.256 2.432z" p-id="2397" fill="#5a5a5a"></path></svg>