<?xml version="1.0" standalone="no"?><!DOCTYPE svg PUBLIC "-//W3C//DTD SVG 1.1//EN" "http://www.w3.org/Graphics/SVG/1.1/DTD/svg11.dtd"><svg t="1518146082649" class="icon" style="" viewBox="0 0 1024 1024" version="1.1" xmlns="http://www.w3.org/2000/svg" p-id="2128" xmlns:xlink="http://www.w3.org/1999/xlink" width="200" height="200"><defs><style type="text/css"></style></defs><path d="M719.52 831.52c-12.288 0-24.576-4.672-33.952-14.048-18.752-18.752-18.752-49.12 0-67.872 131.008-131.008 131.008-344.16 0-475.168-18.752-18.752-18.752-49.152 0-67.872s49.152-18.752 67.872 0c81.6 81.6 126.528 190.08 126.528 305.472s-44.928 223.872-126.528 305.472c-9.376 9.376-21.664 14.048-33.952 14.048l0 0zM549.024 741.024c-12.288 0-24.576-4.672-33.952-14.048-18.752-18.752-18.752-49.12 0-67.872 81.088-81.088 81.088-213.056 0-294.144-18.752-18.752-18.752-49.152 0-67.872s49.12-18.752 67.872 0c118.528 118.528 118.528 311.392 0 429.92-9.376 9.376-21.664 14.048-33.952 14.048z" p-id="2129" fill="#5a5a5a"></path><path d="M416 960c-8.32 0-16.512-3.264-22.624-9.376l-246.624-246.624-114.752 0c-17.664 0-32-14.336-32-32l0-320c0-17.664 14.336-32 32-32l114.752 0 246.624-246.624c9.152-9.152 22.912-11.904 34.88-6.944s19.744 16.608 19.744 29.568l0 832c0 12.928-7.808 24.608-19.744 29.568-3.968 1.632-8.128 2.432-12.256 2.432z" p-id="2130" fill="#5a5a5a"></path></svg>